<?xml version="1.0" standalone="no"?>
<!DOCTYPE svg PUBLIC "-//W3C//DTD SVG 20010904//EN"
 "http://www.w3.org/TR/2001/REC-SVG-20010904/DTD/svg10.dtd">
<svg version="1.0" xmlns="http://www.w3.org/2000/svg"
 width="418.000000pt" height="418.000000pt" viewBox="0 0 418.000000 418.000000"
 preserveAspectRatio="xMidYMid meet">
<metadata>
Created by potrace 1.11, written by Peter Selinger 2001-2013
</metadata>
<g transform="translate(0.000000,418.000000) scale(0.100000,-0.100000)"
fill="#000000" stroke="none">
<path d="M2835 3810 c-99 -21 -165 -102 -166 -203 -1 -68 21 -117 71 -160 162
-139 402 22 335 224 -18 52 -91 129 -123 129 -10 0 -22 3 -26 7 -9 9 -54 10
-91 3z"/>
<path d="M1415 3458 c-96 -53 -98 -185 -4 -234 46 -23 112 -14 149 21 27 26
47 67 45 90 -9 80 -61 135 -128 135 -23 0 -51 -6 -62 -12z"/>
<path d="M1773 3425 c-110 -46 -77 -215 42 -215 35 0 82 25 96 53 52 96 -39
203 -138 162z"/>
<path d="M1037 3417 c-50 -12 -104 -66 -113 -112 -28 -153 143 -252 254 -145
78 74 54 212 -43 247 -52 19 -59 20 -98 10z"/>
<path d="M2055 3328 c-35 -20 -47 -38 -52 -77 -4 -32 -1 -43 23 -70 24 -27 37
-32 72 -33 42 0 82 24 82 52 0 5 4 10 9 10 5 0 8 8 6 18 -2 9 -4 25 -4 34 -3
52 -88 93 -136 66z"/>
<path d="M2863 3210 c-111 -49 -141 -196 -58 -284 86 -92 213 -75 293 39 19
29 23 93 7 139 -34 99 -148 149 -242 106z"/>
<path d="M2267 3187 c-17 -14 -30 -35 -33 -57 -14 -88 111 -127 152 -48 41 79
-51 160 -119 105z"/>
<path d="M3335 3146 c-44 -20 -94 -73 -100 -107 -11 -58 -7 -108 11 -139 92
-157 322 -111 338 67 12 130 -130 232 -249 179z"/>
<path d="M1497 3067 c-113 -37 -122 -196 -14 -245 107 -47 218 64 172 173 -22
54 -103 91 -158 72z"/>
<path d="M2420 3028 c-26 -27 -22 -82 7 -104 43 -32 107 -6 115 46 10 66 -76
107 -122 58z"/>
<path d="M1853 3033 c-30 -6 -79 -56 -85 -85 -13 -69 45 -140 112 -135 21 2
50 11 64 21 51 33 62 116 21 160 -22 24 -67 48 -83 45 -4 -1 -17 -4 -29 -6z"/>
<path d="M1072 3008 c-97 -46 -118 -174 -39 -249 127 -121 330 48 232 194 -46
67 -121 88 -193 55z"/>
<path d="M2120 2929 c-74 -27 -72 -142 2 -174 108 -45 189 109 89 168 -32 19
-53 20 -91 6z"/>
<path d="M658 2860 c-46 -13 -85 -42 -112 -84 -24 -35 -27 -49 -24 -98 9 -129
131 -208 245 -158 75 33 114 99 108 185 -6 99 -122 181 -217 155z"/>
<path d="M2343 2795 c-52 -22 -63 -86 -22 -127 36 -37 81 -37 116 -2 21 21 25
32 20 66 -8 62 -55 88 -114 63z"/>
<path d="M2827 2716 c-47 -17 -64 -32 -84 -69 -70 -137 78 -280 211 -204 45
25 78 81 78 132 0 54 -54 133 -97 142 -5 1 -23 4 -40 7 -16 3 -47 0 -68 -8z"/>
<path d="M3270 2638 c-72 -50 -93 -120 -58 -196 64 -135 263 -104 286 44 7 40
5 56 -12 89 -43 82 -144 111 -216 63z"/>
<path d="M1676 2625 c-84 -29 -114 -109 -73 -193 15 -31 68 -62 107 -62 18 0
52 11 75 25 34 19 44 33 53 66 21 84 -14 145 -98 169 -16 5 -41 3 -64 -5z"/>
<path d="M2015 2586 c-37 -16 -53 -35 -65 -76 -19 -66 39 -140 110 -140 31 0
77 27 92 53 54 98 -37 206 -137 163z"/>
<path d="M1308 2585 c-2 -2 -15 -5 -28 -7 -68 -10 -118 -77 -115 -155 2 -61
29 -103 81 -128 85 -40 180 -3 215 83 26 66 -7 153 -72 187 -27 15 -75 26 -81
20z"/>
<path d="M3665 2505 c-118 -49 -123 -220 -9 -276 103 -49 213 15 220 130 3 55
-18 97 -67 133 -32 24 -104 30 -144 13z"/>
<path d="M2294 2489 c-70 -35 -62 -151 13 -176 82 -28 155 55 116 135 -21 43
-83 63 -129 41z"/>
<path d="M809 2408 c-73 -32 -112 -92 -111 -169 2 -139 160 -220 279 -142 113
73 103 242 -17 303 -54 28 -102 30 -151 8z"/>
<path d="M2690 2314 c-67 -27 -100 -118 -66 -182 62 -117 246 -75 246 56 0 97
-92 161 -180 126z"/>
<path d="M3152 2246 c-39 -20 -72 -71 -72 -109 0 -116 113 -178 207 -114 38
26 44 37 50 94 6 50 -23 105 -67 128 -29 15 -91 16 -118 1z"/>
<path d="M1689 2135 c-14 -7 -33 -29 -43 -47 -17 -31 -17 -36 -3 -70 50 -119
218 -58 178 64 -18 54 -82 80 -132 53z"/>
<path d="M371 2118 c-188 -50 -211 -305 -37 -395 17 -9 56 -16 86 -17 122 0
213 88 213 209 0 136 -131 238 -262 203z"/>
<path d="M3526 2098 c-88 -45 -92 -168 -8 -224 89 -60 211 15 197 121 -12 98
-103 147 -189 103z"/>
<path d="M2495 2001 c-36 -21 -62 -84 -51 -125 22 -90 153 -114 199 -37 32 55
26 109 -16 149 -30 29 -94 35 -132 13z"/>
<path d="M1405 2001 c-79 -33 -55 -161 30 -161 46 0 85 41 81 86 -4 57 -62 95
-111 75z"/>
<path d="M1133 1938 c-31 -15 -44 -57 -28 -95 31 -73 145 -36 131 43 -3 15
-11 33 -18 40 -19 19 -60 25 -85 12z"/>
<path d="M2945 1915 c-28 -29 -33 -41 -31 -77 3 -56 22 -84 68 -103 72 -28
151 23 151 100 0 70 -46 115 -119 115 -29 0 -44 -7 -69 -35z"/>
<path d="M1740 1857 c-31 -20 -53 -70 -48 -109 8 -59 73 -104 134 -92 33 6 83
46 85 68 0 6 2 20 5 31 7 34 -26 93 -61 109 -41 20 -77 17 -115 -7z"/>
<path d="M3354 1797 c-42 -23 -60 -52 -63 -101 -2 -44 1 -51 32 -80 38 -35 66
-41 114 -25 62 20 89 86 63 153 -18 49 -100 78 -146 53z"/>
<path d="M2304 1790 c-24 -9 -61 -58 -58 -77 1 -7 2 -22 3 -32 2 -32 43 -71
79 -75 81 -9 126 55 99 139 -13 38 -78 62 -123 45z"/>
<path d="M1388 1754 c-24 -12 -40 -42 -43 -79 -4 -38 50 -97 90 -100 25 -2 68
20 82 42 28 42 24 90 -9 124 -33 33 -76 38 -120 13z"/>
<path d="M1070 1732 c-33 -27 -36 -84 -8 -116 30 -33 68 -39 105 -16 50 30 51
101 4 137 -24 18 -76 16 -101 -5z"/>
<path d="M2764 1718 c-58 -28 -61 -134 -4 -163 46 -24 88 -19 120 14 24 24 28
35 26 72 -6 72 -75 110 -142 77z"/>
<path d="M1893 1571 c-45 -28 -66 -74 -60 -130 4 -37 12 -52 43 -78 31 -28 45
-33 86 -33 41 0 54 5 84 33 62 57 56 159 -12 204 -39 25 -103 27 -141 4z"/>
<path d="M2553 1575 c-33 -23 -44 -66 -26 -103 18 -36 55 -52 101 -43 21 5 45
34 52 65 7 32 4 40 -20 66 -31 34 -72 39 -107 15z"/>
<path d="M3129 1562 c-73 -61 -19 -180 74 -165 83 13 111 109 48 165 -38 34
-82 34 -122 0z"/>
<path d="M1085 1504 c-73 -38 -72 -134 2 -169 49 -24 101 -4 126 47 16 32 16
40 4 70 -8 18 -20 38 -28 44 -26 21 -73 25 -104 8z"/>
<path d="M1462 1488 c-72 -35 -83 -126 -22 -180 50 -46 138 -32 169 25 32 60
1 146 -58 163 -46 13 -49 12 -89 -8z"/>
<path d="M2933 1430 c-18 -11 -33 -25 -34 -32 -1 -7 -2 -26 -3 -41 -2 -20 5
-34 26 -52 39 -33 78 -32 112 1 32 33 34 74 4 108 -32 35 -66 41 -105 16z"/>
<path d="M2719 1335 c-22 -35 -17 -61 16 -92 24 -22 32 -23 72 -10 42 15 52
75 18 111 -34 37 -81 33 -106 -9z"/>
<path d="M2200 1300 c-8 -5 -18 -6 -23 -3 -5 3 -12 2 -16 -3 -3 -5 -15 -14
-26 -20 -63 -34 -84 -133 -43 -205 59 -106 226 -92 271 22 24 60 10 125 -36
167 -30 28 -108 54 -127 42z"/>
<path d="M1155 1241 c-52 -22 -82 -96 -60 -147 19 -44 52 -66 99 -66 75 -2
123 52 113 126 -6 42 -20 62 -58 82 -31 15 -63 17 -94 5z"/>
<path d="M1611 1200 c-69 -32 -94 -115 -54 -183 46 -77 169 -85 217 -13 40 62
27 146 -30 185 -43 30 -82 33 -133 11z"/>
<path d="M2520 1021 c-48 -26 -77 -62 -90 -112 -32 -118 51 -225 176 -223 153
1 231 185 126 298 -53 57 -144 72 -212 37z"/>
<path d="M1297 945 c-38 -19 -52 -35 -64 -70 -30 -88 30 -175 120 -175 98 0
158 87 121 178 -28 71 -110 102 -177 67z"/>
<path d="M1889 923 c-14 -2 -42 -19 -62 -38 -101 -96 -42 -257 97 -261 104 -4
178 85 152 182 -24 89 -93 132 -187 117z"/>
<path d="M3070 840 c-138 -40 -202 -171 -145 -296 72 -157 296 -158 376 -1 32
61 31 115 -2 183 -26 54 -53 80 -109 105 -27 12 -94 17 -120 9z"/>
<path d="M1585 668 c-97 -20 -147 -120 -107 -211 65 -147 283 -104 288 57 4
103 -81 175 -181 154z"/>
<path d="M2255 659 c-67 -18 -123 -96 -122 -173 0 -56 14 -90 54 -128 28 -27
98 -58 118 -52 6 1 27 5 48 9 54 9 111 63 127 120 39 141 -82 262 -225 224z"/>
</g>
</svg>
